<svg xmlns="http://www.w3.org/2000/svg" style="display:none"><symbol id="basket" viewbox="0 0 612 612" fill="currentColor"><path d="M561 187h-86.615c-.629-1.734-1.274-3.451-2.227-4.998l-85-136C382.636 38.794 374.629 34 365.5 34 351.424 34 340 45.407 340 59.5c0 4.964 1.411 9.571 3.859 13.498L415.106 187H196.894l71.247-114.002A25.34 25.34 0 0 0 272 59.5c0-14.093-11.424-25.5-25.5-25.5-9.129 0-17.136 4.794-21.641 12.002l-85 136c-.969 1.547-1.615 3.264-2.244 4.998H51c-28.169 0-51 22.831-51 51v34c0 24.157 16.847 44.268 39.389 49.555l64.668 219.878C110.279 562.564 129.846 578 153 578h306c23.154 0 42.721-15.436 48.943-36.567l64.668-219.878C595.153 316.285 612 296.157 612 272v-34c0-28.169-22.831-51-51-51zM459 527l-306.017.034L92.99 323h426.02L459 527zm102-255H51v-34h510v34z"/></symbol><symbol id="call" viewbox="0 0 241.73 241.73" fill="currentColor"><path d="M234.771 181.213l-34.938-34.953c-4.692-4.668-10.975-7.24-17.689-7.24-6.987 0-13.584 2.751-18.572 7.742l-13.6 13.597c-10.568-5.874-24.614-13.953-39.197-28.536-14.566-14.571-22.646-28.576-28.55-39.201l13.613-13.603c10.121-10.142 10.328-26.413.463-36.269L61.37 7.818C56.691 3.126 50.408.542 43.677.542c-6.831 0-13.293 2.63-18.252 7.417-3 2.416-18.055 15.706-23.666 43.114-7.856 38.363 10.194 75.274 62.302 127.403 58.209 58.191 107.902 62.714 121.746 62.714 2.882 0 4.621-.178 5.085-.232 27.147-3.182 36.867-15.238 43.964-24.041 9.196-11.409 9.164-26.421-.085-35.704zm-11.593 26.289c-6.671 8.274-12.971 16.088-34.031 18.557-.011.001-1.163.13-3.34.13-12.386 0-57.008-4.206-111.139-58.32-48.053-48.073-64.919-81.04-58.214-113.788 4.894-23.906 17.887-34.067 18.392-34.453l.448-.331.393-.394c2.169-2.167 5.006-3.361 7.989-3.361 2.716 0 5.228 1.018 7.08 2.876l34.939 34.94c4.02 4.016 3.806 10.774-.471 15.06L69.829 83.8l-.253.265c-4.012 4.419-3.54 10.391-1.33 14.28 6.377 11.508 15.112 27.269 31.92 44.082 16.752 16.752 32.49 25.48 43.966 31.845 1.149.645 3.521 1.727 6.49 1.727 3.506 0 6.725-1.484 9.108-4.189l14.448-14.444c2.157-2.158 4.985-3.347 7.964-3.347 2.722 0 5.247 1.021 7.095 2.859l34.915 34.93c4.435 4.451 2.604 11.256-.974 15.694zM146.447 37.293c12.887 1.483 28.061 9.289 38.657 19.886 10.695 10.695 18.52 26.023 19.933 39.05a7.5 7.5 0 0 0 14.912-1.618c-1.787-16.467-11.075-34.874-24.238-48.038-13.04-13.041-31.259-22.306-47.549-24.181-4.113-.477-7.834 2.479-8.308 6.593a7.5 7.5 0 0 0 6.593 8.308zm-7.007 31.418c6.97.803 16.616 5.973 22.935 12.292 6.373 6.374 11.553 16.112 12.316 23.157a7.5 7.5 0 1 0 14.912-1.617c-1.304-12.028-9.289-24.813-16.623-32.147-7.268-7.269-19.928-15.216-31.825-16.587-4.119-.479-7.835 2.478-8.309 6.592a7.503 7.503 0 0 0 6.594 8.31z"/></symbol><symbol id="caret" viewbox="0 0 129 129" fill="currentColor"><path d="M121.3 34.6c-1.6-1.6-4.2-1.6-5.8 0l-51 51.1-51.1-51.1c-1.6-1.6-4.2-1.6-5.8 0-1.6 1.6-1.6 4.2 0 5.8l53.9 53.9c.8.8 1.8 1.2 2.9 1.2 1 0 2.1-.4 2.9-1.2l53.9-53.9c1.7-1.6 1.7-4.2.1-5.8z"/></symbol><symbol id="filter" viewbox="0 0 599.964 599.964" fill="currentColor"><g><path d="M310.182 90.78V10.2c0-5.712-4.488-10.2-10.2-10.2s-10.2 4.488-10.2 10.2v80.58c-34.476 4.896-61.2 34.68-61.2 70.584s26.724 65.688 61.2 70.584v357.816c0 5.712 4.488 10.2 10.2 10.2s10.2-4.488 10.2-10.2V231.948c34.476-4.896 61.2-34.68 61.2-70.584s-26.724-65.688-61.2-70.584zm-10.2 121.584c-28.152 0-51-22.848-51-51s22.848-51 51-51 51 22.848 51 51-22.848 51-51 51z"/><path d="M299.982 125.664c-19.584 0-35.7 16.116-35.7 35.7 0 2.856 2.244 5.1 5.1 5.1s5.1-2.244 5.1-5.1c0-14.076 11.424-25.5 25.5-25.5 2.856 0 5.1-2.244 5.1-5.1 0-2.856-2.244-5.1-5.1-5.1zM575.382 446.964c0-35.904-26.724-65.688-61.2-70.584V18.564c0-5.712-4.488-10.2-10.2-10.2s-10.2 4.488-10.2 10.2V376.38c-34.476 4.896-61.2 34.68-61.2 70.584s26.724 65.688 61.2 70.584v72.216c0 5.712 4.488 10.2 10.2 10.2s10.2-4.488 10.2-10.2v-72.216c34.476-4.896 61.2-34.68 61.2-70.584zm-71.4 51c-28.152 0-51-22.848-51-51s22.848-51 51-51 51 22.848 51 51-22.848 51-51 51z"/><path d="M503.982 411.264c-19.584 0-35.7 16.116-35.7 35.7 0 2.856 2.244 5.1 5.1 5.1s5.1-2.244 5.1-5.1c0-14.076 11.424-25.5 25.5-25.5 2.856 0 5.1-2.244 5.1-5.1s-2.244-5.1-5.1-5.1zM106.182 376.38V18.564c0-5.712-4.488-10.2-10.2-10.2-5.712 0-10.2 4.488-10.2 10.2V376.38c-34.476 4.896-61.2 34.68-61.2 70.584s26.724 65.688 61.2 70.584v72.216c0 5.712 4.488 10.2 10.2 10.2 5.712 0 10.2-4.488 10.2-10.2v-72.216c34.476-4.896 61.2-34.68 61.2-70.584s-26.724-65.688-61.2-70.584zm-10.2 121.584c-28.152 0-51-22.848-51-51s22.848-51 51-51 51 22.848 51 51-22.848 51-51 51z"/><path d="M95.982 411.264c-19.584 0-35.7 16.116-35.7 35.7 0 2.856 2.244 5.1 5.1 5.1 2.856 0 5.1-2.244 5.1-5.1 0-14.076 11.424-25.5 25.5-25.5 2.856 0 5.1-2.244 5.1-5.1s-2.244-5.1-5.1-5.1z"/></g></symbol><symbol id="full-cat" viewbox="0 0 245 54" fill="currentColor"><title>Rectangle 161 + Rectangle 12 + &#x412;&#x421;&#x415; &#x41E;&#x411;&#x41E;&#x420;&#x423;&#x414;&#x41E;&#x412;&#x410;&#x41D;&#x418;&#x415; + chevron right</title><g fill-rule="evenodd"><path d="M234 40h11l-5.5 7-5.5 7V40z"/><rect width="245" height="40" rx="40"/><g><text font-family=".AppleSystemUIFont" font-size="14" letter-spacing=".2" transform="translate(39 12)"><tspan x="0" y="14">&#x412;&#x421;&#x415; &#x41E;&#x411;&#x41E;&#x420;&#x423;&#x414;&#x41E;&#x412;&#x410;&#x41D;&#x418;&#x415;</tspan></text><path d="M208.732 15.479c.369.36 3.972 4.143 3.972 4.143a.966.966 0 0 1 0 1.39s-3.603 3.785-3.972 4.143c-.369.36-1.032.385-1.425 0-.394-.383-.425-.919 0-1.389l3.306-3.448-3.306-3.449c-.425-.47-.394-1.006 0-1.39.393-.385 1.056-.361 1.425 0z"/></g></g></symbol><symbol id="grid-list" viewbox="0 0 511 511" fill="currentColor"><path d="M503.5 272h-312a7.5 7.5 0 0 0 0 15h312a7.5 7.5 0 0 0 0-15zM503.5 224h-312a7.5 7.5 0 0 0 0 15h312a7.5 7.5 0 0 0 0-15zM119.5 184h-96C10.542 184 0 194.542 0 207.5v96C0 316.458 10.542 327 23.5 327h96c12.958 0 23.5-10.542 23.5-23.5v-96c0-12.958-10.542-23.5-23.5-23.5zm8.5 119.5c0 4.687-3.813 8.5-8.5 8.5h-96c-4.687 0-8.5-3.813-8.5-8.5v-96c0-4.687 3.813-8.5 8.5-8.5h96c4.687 0 8.5 3.813 8.5 8.5v96zM503.5 96h-312a7.5 7.5 0 0 0 0 15h312a7.5 7.5 0 0 0 0-15zM191.5 63h312a7.5 7.5 0 0 0 0-15h-312a7.5 7.5 0 0 0 0 15zM119.5 8h-96C10.542 8 0 18.542 0 31.5v96C0 140.458 10.542 151 23.5 151h96c12.958 0 23.5-10.542 23.5-23.5v-96C143 18.542 132.458 8 119.5 8zm8.5 119.5c0 4.687-3.813 8.5-8.5 8.5h-96c-4.687 0-8.5-3.813-8.5-8.5v-96c0-4.687 3.813-8.5 8.5-8.5h96c4.687 0 8.5 3.813 8.5 8.5v96zM503.5 448h-312a7.5 7.5 0 0 0 0 15h312a7.5 7.5 0 0 0 0-15zM503.5 400h-312a7.5 7.5 0 0 0 0 15h312a7.5 7.5 0 0 0 0-15zM119.5 360h-96C10.542 360 0 370.542 0 383.5v96C0 492.458 10.542 503 23.5 503h96c12.958 0 23.5-10.542 23.5-23.5v-96c0-12.958-10.542-23.5-23.5-23.5zm8.5 119.5c0 4.687-3.813 8.5-8.5 8.5h-96c-4.687 0-8.5-3.813-8.5-8.5v-96c0-4.687 3.813-8.5 8.5-8.5h96c4.687 0 8.5 3.813 8.5 8.5v96z"/></symbol><symbol id="grid2" viewbox="0 0 27.45 27.45" fill="currentColor"><path d="M27.45 4.723A3.849 3.849 0 0 0 23.618.891h-7.147a3.81 3.81 0 0 0-2.745 1.168A3.808 3.808 0 0 0 10.981.891H3.833A3.849 3.849 0 0 0 0 4.723v6.258c0 1.077.449 2.051 1.168 2.744A3.802 3.802 0 0 0 0 16.469v6.258a3.849 3.849 0 0 0 3.833 3.832h7.148a3.807 3.807 0 0 0 2.744-1.168 3.802 3.802 0 0 0 2.744 1.168h7.148a3.849 3.849 0 0 0 3.832-3.832v-6.258a3.802 3.802 0 0 0-1.168-2.744 3.803 3.803 0 0 0 1.169-2.744V4.723zM12.693 23.209a1.79 1.79 0 0 1-1.712 1.311H3.833a1.815 1.815 0 0 1-1.795-1.793v-6.258c0-.814.565-1.508 1.313-1.713.153.02.324.02.482.02h7.148c.158 0 .313 0 .466-.02a1.79 1.79 0 0 1 1.246 1.238c-.019.152-.019.313-.019.475v6.258c0 .159 0 .329.019.482zm0-11.759a1.789 1.789 0 0 1-1.24 1.244c-.153-.02-.314-.02-.472-.02H3.833c-.158 0-.329 0-.482.02a1.792 1.792 0 0 1-1.313-1.713V4.723c0-.975.821-1.793 1.795-1.793h7.148a1.79 1.79 0 0 1 1.712 1.31c-.019.154-.019.324-.019.483v6.258c0 .159 0 .315.019.469zm12.72 11.277c0 .975-.822 1.793-1.795 1.793h-7.147a1.791 1.791 0 0 1-1.714-1.311c.021-.153.021-.323.021-.482v-6.258c0-.159 0-.314-.021-.469a1.789 1.789 0 0 1 1.24-1.244c.153.02.313.02.474.02h7.147c.157 0 .327 0 .481-.02a1.79 1.79 0 0 1 1.312 1.713l.002 6.258zm0-11.746c0 .814-.565 1.508-1.313 1.713-.154-.02-.324-.02-.48-.02h-7.148c-.158 0-.312 0-.467.02a1.79 1.79 0 0 1-1.246-1.238c.02-.154.02-.315.02-.475V4.723c0-.159 0-.329-.02-.483a1.79 1.79 0 0 1 1.713-1.31h7.148c.975 0 1.795.818 1.795 1.793l-.002 6.258z"/></symbol><symbol id="grid3" viewbox="0 0 24.868 24.868" fill="currentColor"><path d="M24.868 2.676C24.867 1.308 23.752.171 22.385.171h-4.434a2.47 2.47 0 0 0-1.689.667A2.478 2.478 0 0 0 14.57.171h-4.434c-.61 0-1.17.224-1.603.59a2.465 2.465 0 0 0-1.602-.59H2.498C1.129.171 0 1.308 0 2.676v4.435c0 .569.194 1.096.52 1.516-.326.418-.52.943-.52 1.515v4.434c0 .61.223 1.17.59 1.603-.367.432-.59.991-.59 1.602v4.434c0 1.368 1.129 2.481 2.498 2.481h4.433a2.48 2.48 0 0 0 1.604-.59c.433.366.992.59 1.603.59h4.434a2.47 2.47 0 0 0 1.689-.667 2.475 2.475 0 0 0 1.69.667h4.435a2.485 2.485 0 0 0 2.481-2.481v-4.434c0-.611-.224-1.17-.591-1.604a2.47 2.47 0 0 0 .591-1.603v-4.432c0-.571-.194-1.098-.521-1.518a2.47 2.47 0 0 0 .521-1.516l.001-4.432zM7.686 22.553a.833.833 0 0 1-.756.482H2.497a.833.833 0 0 1-.837-.82v-4.434c0-.333.206-.61.491-.739.11.017.23.033.346.033H6.93c.115 0 .228-.019.339-.033a.831.831 0 0 1 .417.405 2.292 2.292 0 0 0-.017.334v4.434c0 .115.001.227.017.338zm0-7.638a.838.838 0 0 1-.413.417c-.112-.015-.228-.015-.343-.015H2.497c-.115 0-.235 0-.347.016a.84.84 0 0 1-.49-.757v-4.434c0-.244.114-.457.282-.608.177.04.367.066.555.066H6.93c.188 0 .371-.026.547-.065a.829.829 0 0 1 .209.271 2.32 2.32 0 0 0-.017.336v4.434c0 .115.001.228.017.339zm0-7.467a.833.833 0 0 1-.205.267 2.511 2.511 0 0 0-.551-.069H2.497c-.188 0-.378.028-.555.068a.81.81 0 0 1-.282-.605V2.676c0-.454.383-.844.837-.844H6.93c.333 0 .627.209.756.494a2.549 2.549 0 0 0-.017.35v4.435c0 .113.001.227.017.337zm7.703 14.767c0 .454-.363.82-.818.82h-4.434a.81.81 0 0 1-.739-.482c.015-.11.031-.224.031-.338v-4.434c0-.115-.017-.229-.031-.338a.792.792 0 0 1 .405-.401c.111.017.22.033.334.033h4.434c.115 0 .227-.018.337-.033a.807.807 0 0 1 .481.739v4.434zm0-7.64a.83.83 0 0 1-.48.757c-.112-.015-.223-.015-.34-.015h-4.434c-.114 0-.228 0-.338.015a.81.81 0 0 1-.402-.413c.016-.11.032-.228.032-.343v-4.434c0-.115-.017-.229-.031-.34a.797.797 0 0 1 .198-.269c.176.039.354.065.542.065h4.434c.188 0 .369-.026.546-.066a.809.809 0 0 1 .272.608v4.435h.001zm0-7.465a.8.8 0 0 1-.272.604 2.458 2.458 0 0 0-.546-.068h-4.434c-.188 0-.37.028-.546.067a.744.744 0 0 1-.195-.27c.015-.11.031-.221.031-.334V2.676c0-.113-.017-.237-.032-.35a.823.823 0 0 1 .741-.494h4.434c.455 0 .818.39.818.844l.001 4.434zm7.816 15.105a.82.82 0 0 1-.821.82H17.95a.805.805 0 0 1-.804-.82v-4.434c0-.333.188-.61.475-.739.111.017.215.033.329.033h4.434c.114 0 .228-.019.339-.033a.808.808 0 0 1 .482.739v4.434zm0-7.639a.833.833 0 0 1-.482.756c-.111-.015-.225-.015-.339-.015H17.95c-.114 0-.218 0-.329.016a.826.826 0 0 1-.475-.757v-4.434a.8.8 0 0 1 .267-.608c.176.04.351.066.537.066h4.434c.188 0 .37-.026.546-.065a.8.8 0 0 1 .275.607v4.434zm0-7.466a.796.796 0 0 1-.275.604 2.51 2.51 0 0 0-.546-.067H17.95c-.188 0-.361.028-.537.068a.792.792 0 0 1-.267-.604V2.676c0-.454.35-.844.804-.844h4.434c.453 0 .821.39.821.844V7.11z"/></symbol><symbol id="left" viewbox="0 0 250.738 250.738" fill="currentColor"><path d="M96.633 125.369l95.053-94.533c7.101-7.055 7.101-18.492 0-25.546-7.1-7.054-18.613-7.054-25.714 0L58.989 111.689c-3.784 3.759-5.487 8.759-5.238 13.68-.249 4.922 1.454 9.921 5.238 13.681l106.983 106.398c7.101 7.055 18.613 7.055 25.714 0 7.101-7.054 7.101-18.491 0-25.544l-95.053-94.535z" fill-rule="evenodd" clip-rule="evenodd"/></symbol><symbol id="logo" viewbox="0 0 1176.2 446.1" fill="currentColor"><style>.st0{fill:url(#SVGID_1_)}.st1{fill:url(#SVGID_2_)}.st2{fill:url(#SVGID_3_)}.st3{fill:url(#SVGID_4_)}.st4{fill:url(#SVGID_5_)}.st5{fill:url(#SVGID_6_)}.st6{fill:url(#SVGID_7_)}.st7{fill:url(#SVGID_8_)}.st8{fill:url(#SVGID_9_)}.st9{fill:url(#SVGID_10_)}</style><path d="M59.9 185.1v-53.7h25.9c11.6 0 15.1 8.1 15.1 17.9 0 8.8-4.1 17-14.8 17H67.8V185h-7.9zm24.5-25.4c5.3 0 7.9-3.9 7.9-10.4 0-7.2-2.6-11.2-7.6-11.2H67.8v21.6h16.6zM130.9 145.2v7.1c-1.3-.2-2.9-.4-4.5-.4-5.2 0-9.9 1.8-9.9 4.8v28.4h-7.3v-39h7.3v2.8c1.4-2 4.9-3.9 10.5-3.9 1.2-.1 2.6 0 3.9.2zM135.7 165.3c0-15.9 5.9-20.4 18.2-20.4 12.3 0 18.2 4.5 18.2 20.4 0 16-5.8 20.8-18.2 20.8-12.3 0-18.2-4.7-18.2-20.8zm7.7.2c0 11.7 2.5 14.5 10.5 14.5 7.9 0 10.5-2.8 10.5-14.5 0-12.2-2.5-14.4-10.5-14.4-7.9 0-10.5 2.2-10.5 14.4zM180.9 165.3c0-15.9 5.9-20.4 18.2-20.4 12.3 0 18.2 4.5 18.2 20.4 0 16-5.8 20.8-18.2 20.8-12.3 0-18.2-4.7-18.2-20.8zm7.7.2c0 11.7 2.5 14.5 10.5 14.5 7.9 0 10.5-2.8 10.5-14.5 0-12.2-2.5-14.4-10.5-14.4-7.9 0-10.5 2.2-10.5 14.4zM236.4 146h13.3v6.5h-13.3v32.6h-7.2v-32.6h-6.7V146h6.7v-3.1c0-11.9 6.9-13.4 14.2-13.4 3 0 6.4.6 8.9 1.5-.6 1.9-1.1 3.9-1.7 5.9-1.9-.6-5-1-7.3-1-4 0-6.9 1.2-6.9 7.2v2.9zM262.8 185.1h-7.2v-36.9c4.5-1.9 11.1-3.2 16.6-3.2 4.6 0 7.9.8 10.2 2.6 4.3-1.5 9.7-2.6 14.1-2.6 11.2 0 15.1 4.1 15.1 18.2v21.9h-7.2v-20.9c0-10.2-2.1-12.5-9.3-12.5-2.2 0-6 .3-9.2 1.3.8 2.5 1.4 5.9 1.4 10.2v21.9H280v-20.9c0-10.2-1.9-12.5-9.2-12.5-2.6 0-5.6.4-7.9 1.1v32.3zM355.7 165.3v1.8h-26.6c.1 10.5 3.7 12.7 11.6 12.7 2.8 0 7.9-.8 11.1-1.8l1.3 6.1c-3.9 1.2-9.6 2.2-13.2 2.2-11.5 0-18.6-4.8-18.6-20.8 0-15.5 6.4-20.4 17.9-20.4 11.3-.2 16.5 3.8 16.5 20.2zm-26.5-4.2h19c-.4-8.3-2.5-10.1-8.9-10.1-7.1 0-9.5 2.3-10.1 10.1zM390.9 147.6v-18.2h7.3v53.7c-4.2 1.8-11.2 2.9-16.4 2.9-12.5 0-18.2-4.5-18.2-20.6 0-15.9 6-20.6 17.3-20.6 5 .1 8 1.5 10 2.8zm0 30.7v-21.6c0-3.4-3.6-5.3-9.2-5.3-7.9 0-10.5 2.9-10.5 14.2 0 11.9 2.6 14.2 10.5 14.2 3.3-.1 6.8-.6 9.2-1.5zM417.5 134.3c0 3.7-1.1 4.3-4.3 4.3-3.3 0-4.4-.6-4.4-4.3 0-3.4 1.1-3.8 4.4-3.8 3.2 0 4.3.4 4.3 3.8zm-.8 50.8h-7.2v-39h7.2v39zM457.3 184.1c-3 1.3-8 2.1-11.5 2.1-12 0-19.1-4.8-19.1-20.8 0-15.9 7.2-20.4 19.1-20.4 3.5 0 8.6.8 11.5 1.8l-1.9 6.5c-2.6-1.2-6.1-1.8-9.3-1.8-7.9 0-11.7 1.9-11.7 14 0 11.5 3.8 14.1 11.7 14.1 3.4 0 6.7-.8 9.3-1.9l1.9 6.4zM495.3 183.1c-4.6 1.9-11.5 3.1-16.7 3.1-11.8 0-16.2-2.9-16.2-13.1 0-11.1 6.5-12.9 15.4-12.9 3.7 0 6.7.4 10.4 1.2 0-8.2-2.1-10-10.6-10-4 0-8.4.6-11.5 1.8l-1.5-6.3c3.5-.9 8.8-1.9 14.2-1.9 11.5 0 16.6 3.4 16.6 15.2v22.9zm-7.1-16.4c-2.5-.6-5.8-.8-9.1-.8-6.6 0-8.9.7-8.9 6.8 0 6.5 1.8 7.5 8.8 7.5 3.2 0 6.5-.6 9.2-1.5v-12zM513.6 174.6c0 3.8.8 5.9 3.4 8.8l-6.2 3.4c-3-3.1-4.5-6.2-4.5-11.9v-45.4h7.2v45.1z"/><g><lineargradient id="SVGID_1_" gradientunits="userSpaceOnUse" x1="162.018" y1="88.743" x2="226.292" y2="88.743"><stop offset="0" stop-color="#006bb0"/><stop offset="1" stop-color="#23b6ea"/></lineargradient><path class="st0" d="M191.7 86.5c-8.6-1.1-15.1-7.5-15.2-7.5-1.6-1.6-3.8-2.5-6.1-2.5-2.2 0-4.3.9-5.9 2.4-1.6 1.6-2.5 3.7-2.6 6 0 2.3.8 4.4 2.4 6 .5.5 12.7 12.8 29.8 12.8 13.4 0 22.8-6.4 27.8-19.2.3-.7.6-1.5.9-2.3v-.1c1-2.6 2.1-5.5 3.3-8.2-5 11.8-16 16.2-34.4 12.6z"/><lineargradient id="SVGID_2_" gradientunits="userSpaceOnUse" x1="244.996" y1="56.606" x2="245.897" y2="56.606"><stop offset="0" stop-color="#006bb0"/><stop offset="1" stop-color="#23b6ea"/></lineargradient><path class="st1" d="M245 56.6h.8-.8z"/><lineargradient id="SVGID_3_" gradientunits="userSpaceOnUse" x1="222.608" y1="99.569" x2="248.672" y2="38.167"><stop offset="0" stop-color="#006bb0"/><stop offset="1" stop-color="#23b6ea"/></lineargradient><path class="st2" d="M265.4 80c.6-.6 1.3-1.3 1.9-2.1 4.3-5.3 6-12.2 4.6-18.9-1.4-7-5.9-12.8-12.1-16.1-4.2-2.2-9.4-3.4-14.7-3.4-6.6 0-12.9 1.9-18.1 5.4-10.4 7-15.6 20.3-19.8 31-.3.8-.6 1.6-.9 2.3-2.4 6.1-5.7 8.4-12 8.4-.9 0-1.7-.1-2.5-.2 18.3 3.7 29.3-.8 34.6-12.6 2.7-6.2 5.9-12 10.1-14.8 3-2 6.3-2.4 8.6-2.4h.9c21.3.5 24.6 17.9 19.4 23.4z"/><lineargradient id="SVGID_4_" gradientunits="userSpaceOnUse" x1="230.157" y1="103.427" x2="260.899" y2="61.114"><stop offset="0" stop-color="#23b6ea"/><stop offset="1" stop-color="#006bb0"/></lineargradient><path class="st3" d="M247.6 87.8c.4-.2.9-.3 1.5-.4h.2c4.2-.6 10.3-1.6 16.1-7.4 5.2-5.6 1.9-22.9-19.5-23.4h.9c5 .5 7.4 3.9 7.6 6.7.1 2.7-1.8 6-7.6 7.2-.1 0-.5.1-1.1.2-1.9.3-3.9.7-6 1.6-8.3 3.6-15 13.5-10.3 26.7 1.6 4.5 5.5 8.4 10.8 11.2-9.9-5.2-3.3-19 7.4-22.4z"/><lineargradient id="SVGID_5_" gradientunits="userSpaceOnUse" x1="242.739" y1="87.304" x2="277.536" y2="109.048"><stop offset="0" stop-color="#006bb0"/><stop offset="1" stop-color="#23b6ea"/></lineargradient><path class="st4" d="M246.9 93.9c-.1-.1-.3-.2-.4-.3-1-1.1-1.4-2.5-1-3.6.3-.9 1-1.6 2.1-2-10.7 3.4-17.3 17.1-7.5 22.4 3.4 1.8 7.3 3.1 11.6 3.8 1.7.3 3.5.4 5.2.4 9 0 17.3-3.8 23.3-10.8 3.5-4.1 5.9-8.4 7.8-12.8-4.7 10.4-19.8 10.5-34.1 6.3-3-1-5.2-1.8-7-3.4z"/><lineargradient id="SVGID_6_" gradientunits="userSpaceOnUse" x1="269.307" y1="105.774" x2="301.335" y2="47.993"><stop offset="0" stop-color="#006bb0"/><stop offset="1" stop-color="#23b6ea"/></lineargradient><path class="st5" d="M314.7 60.3c-3.2-7.3-10-12-17.7-12-7.7 0-14.4 4.8-17.3 12.4-1.6 4-2.7 8.1-3.7 12.1-2 7.4-3.9 14.5-8.6 19.9-2.8 3.3-6.3 4.9-10.4 4.9-.8 0-1.7-.1-2.5-.2-.2 0-.4-.1-.6-.1 14.3 4.2 29.4 4.1 34.1-6.3.1-.2.2-.5.3-.7.1-.2.2-.4.2-.6.1-.3.2-.6.3-.8 1.5-3.9 2.5-7.9 3.5-11.6.6-2.2 1.2-4.5 1.9-6.7l.5-1.4c2.8-11.5 14.6-20.1 20-8.9z"/><lineargradient id="SVGID_7_" gradientunits="userSpaceOnUse" x1="293.213" y1="73.329" x2="343.253" y2="90.559"><stop offset="0" stop-color="#006bb0"/><stop offset="1" stop-color="#23b6ea"/></lineargradient><path class="st6" d="M320.9 86.5v-.2l-.9-4.4c-.2-.9-.3-1.8-.5-2.7-1.3-6.7-2.6-13.6-4.4-18.3-.1-.2-.2-.4-.3-.7-5.4-11.1-16.5-4-20 8.8 0-.1.1-.3.1-.4l.1-.2c.5-1.4 1.6-1.9 2.4-1.9 1.1 0 1.9.7 2.2 1.9.1.5.3.9.4 1.3 1 3.6 2 8.6 2.7 12.7.7 3.8 1.4 7.4 2.1 9.9 2.1 7.8 9.1 13.6 17.3 14.3.6.1 1.2.1 1.8.1 7.3 0 13.8-4 17.5-10.9-5.9 10.6-18.3 3.1-20.5-9.3z"/><lineargradient id="SVGID_8_" gradientunits="userSpaceOnUse" x1="328.401" y1="99.096" x2="361.826" y2="60.645"><stop offset="0" stop-color="#006bb0"/><stop offset="1" stop-color="#23b6ea"/></lineargradient><path class="st7" d="M371.2 71.9c-2.9-6.3-8.4-13.2-19.4-12.7-12.6.5-17.5 11.4-22.2 21.9-.4 1-2.6 5.7-2.6 5.7-.8 1.6-1.8 2.5-3 2.5-1.3 0-2.5-1.1-3-2.8 2.2 12.4 14.6 19.9 20.5 9.3l.6-1.2c1.1-2.3 2.1-4.5 3-6.5 1.1-2.5 2.1-4.6 2.9-6.3l.9-1.6c5.8-11.6 17.9-17.6 22.3-8.3z"/><lineargradient id="SVGID_9_" gradientunits="userSpaceOnUse" x1="370.747" y1="64.071" x2="388.708" y2="108.527"><stop offset="0" stop-color="#006bb0"/><stop offset="1" stop-color="#23b6ea"/></lineargradient><path class="st8" d="M377.3 88.7c-1.2-1.7-2.2-4.3-3.4-8.6-.5-1.9-1.3-5-2.8-8.1-4.4-9.3-16.5-3.3-22.3 8.3l.3-.5c1.1-1.7 2.4-2.6 3.6-2.6 1.6 0 3 1.5 3.8 4 .3.9.6 2 1 3.2 2.1 8 6.1 23 25.4 24h1.3c11 0 19.4-7.1 26.7-15.3-10.9 12.2-26.2 6.6-33.6-4.4z"/><lineargradient id="SVGID_10_" gradientunits="userSpaceOnUse" x1="387.337" y1="98.677" x2="407.68" y2="75.275"><stop offset="0" stop-color="#006bb0"/><stop offset="1" stop-color="#23b6ea"/></lineargradient><path class="st9" d="M414.8 84.8c-.2-2.3-1.2-4.3-2.9-5.8-1.5-1.3-3.5-2.1-5.5-2.1-2.5 0-4.8 1.1-6.4 3-5.2 6-10.7 11.6-15.8 11.6h-.4c-3-.2-4.9-.6-6.4-2.7 7.4 11 22.7 16.6 33.6 4.4.6-.7 1.3-1.4 1.9-2.2 1.4-1.8 2.1-4 1.9-6.2z"/></g></symbol><symbol id="right" viewbox="0 0 315.5 315.5" fill="currentColor"><path d="M242 141L109 8c-5-5-12-8-18-8S79 3 74 8c-10 10-10 24 0 34l116 116L74 274c-10 10-10 24 0 34s25 10 35 0l133-133c5-5 7-11 7-17 0-7-2-12-7-17z"/></symbol><symbol id="search" viewbox="0 0 512 512" fill="currentColor"><path d="M495 466.1L384.9 356c31.1-37.7 48-84.6 48-134 0-56.4-21.9-109.3-61.8-149.2C331.3 32.9 278.3 11 222 11S112.7 32.9 72.8 72.8C32.9 112.6 11 165.6 11 222c0 56.3 21.9 109.3 61.8 149.2C112.6 411 165.6 433 222 433c49.5 0 96.4-16.9 134-48l110.1 110c8 8 20.9 8 28.9 0s8-20.9 0-28.9zM101.7 342.2C69.5 310.1 51.8 267.4 51.8 222c0-45.4 17.7-88.2 49.8-120.3 32.1-32.1 74.8-49.8 120.3-49.8 45.4 0 88.2 17.7 120.3 49.8C374.3 133.8 392 176.5 392 222c0 45.4-17.7 88.2-49.8 120.3-32.1 32.1-74.9 49.8-120.3 49.8-45.4 0-88.1-17.7-120.2-49.9z"/></symbol><symbol id="user" viewbox="0 0 317.452 317.452" fill="currentColor"><path d="M158.726 204.076c47.096 0 79.363-34.126 79.363-79.363v-45.35C238.089 34.126 205.822 0 158.726 0S79.363 34.126 79.363 79.363v45.35c0 45.237 32.267 79.363 79.363 79.363zM102.038 79.363c0-31.859 23.537-56.688 56.688-56.688s56.688 24.829 56.688 56.688v45.35c0 31.859-23.537 56.688-56.688 56.688s-56.688-24.829-56.688-56.688v-45.35zm137.207 90.565l-2.812-.93-1.383 2.517c-2.88 5.215-6.349 10.272-10.294 15.034l-3.243 3.9 4.989 1.361c36.643 10.09 65.962 66.96 67.481 103.036H23.446c1.519-36.099 27.505-92.945 64.148-103.036l4.989-1.361-3.22-3.9c-3.968-4.784-7.437-9.841-10.295-15.056l-1.406-2.517-2.789.952C28.979 185.143 0 248.361 0 294.845v22.607h317.452v-22.607c0-46.484-32.335-109.702-78.207-124.917z"/></symbol></svg>