<?xml version="1.0" encoding="utf-8"?>
<!-- Generator: Adobe Illustrator 19.0.0, SVG Export Plug-In . SVG Version: 6.00 Build 0)  -->
<svg version="1.1" id="Layer_1" xmlns="http://www.w3.org/2000/svg" xmlns:xlink="http://www.w3.org/1999/xlink" x="0px" y="0px"
	 viewBox="0 0 1176.2 446.1" style="enable-background:new 0 0 1176.2 446.1;" xml:space="preserve">
<style type="text/css">
	.st0{fill:url(#SVGID_1_);}
	.st1{fill:url(#SVGID_2_);}
	.st2{fill:url(#SVGID_3_);}
	.st3{fill:url(#SVGID_4_);}
	.st4{fill:url(#SVGID_5_);}
	.st5{fill:url(#SVGID_6_);}
	.st6{fill:url(#SVGID_7_);}
	.st7{fill:url(#SVGID_8_);}
	.st8{fill:url(#SVGID_9_);}
	.st9{fill:url(#SVGID_10_);}
</style>
<g>
	<g>
		<path d="M59.9,185.1v-53.7h25.9c11.6,0,15.1,8.1,15.1,17.9c0,8.8-4.1,17-14.8,17H67.8v18.7H59.9z M84.4,159.7
			c5.3,0,7.9-3.9,7.9-10.4c0-7.2-2.6-11.2-7.6-11.2H67.8v21.6H84.4z"/>
		<path d="M130.9,145.2v7.1c-1.3-0.2-2.9-0.4-4.5-0.4c-5.2,0-9.9,1.8-9.9,4.8v28.4h-7.3v-39h7.3v2.8c1.4-2,4.9-3.9,10.5-3.9
			C128.2,144.9,129.6,145,130.9,145.2z"/>
		<path d="M135.7,165.3c0-15.9,5.9-20.4,18.2-20.4c12.3,0,18.2,4.5,18.2,20.4c0,16-5.8,20.8-18.2,20.8
			C141.6,186.1,135.7,181.4,135.7,165.3z M143.4,165.5c0,11.7,2.5,14.5,10.5,14.5c7.9,0,10.5-2.8,10.5-14.5
			c0-12.2-2.5-14.4-10.5-14.4C146,151.1,143.4,153.3,143.4,165.5z"/>
		<path d="M180.9,165.3c0-15.9,5.9-20.4,18.2-20.4c12.3,0,18.2,4.5,18.2,20.4c0,16-5.8,20.8-18.2,20.8
			C186.8,186.1,180.9,181.4,180.9,165.3z M188.6,165.5c0,11.7,2.5,14.5,10.5,14.5c7.9,0,10.5-2.8,10.5-14.5
			c0-12.2-2.5-14.4-10.5-14.4C191.2,151.1,188.6,153.3,188.6,165.5z"/>
		<path d="M236.4,146h13.3v6.5h-13.3v32.6h-7.2v-32.6h-6.7V146h6.7v-3.1c0-11.9,6.9-13.4,14.2-13.4c3,0,6.4,0.6,8.9,1.5
			c-0.6,1.9-1.1,3.9-1.7,5.9c-1.9-0.6-5-1-7.3-1c-4,0-6.9,1.2-6.9,7.2V146z"/>
		<path d="M262.8,185.1h-7.2v-36.9c4.5-1.9,11.1-3.2,16.6-3.2c4.6,0,7.9,0.8,10.2,2.6c4.3-1.5,9.7-2.6,14.1-2.6
			c11.2,0,15.1,4.1,15.1,18.2v21.9h-7.2v-20.9c0-10.2-2.1-12.5-9.3-12.5c-2.2,0-6,0.3-9.2,1.3c0.8,2.5,1.4,5.9,1.4,10.2v21.9h-7.3
			v-20.9c0-10.2-1.9-12.5-9.2-12.5c-2.6,0-5.6,0.4-7.9,1.1V185.1z"/>
		<path d="M355.7,165.3v1.8h-26.6c0.1,10.5,3.7,12.7,11.6,12.7c2.8,0,7.9-0.8,11.1-1.8l1.3,6.1c-3.9,1.2-9.6,2.2-13.2,2.2
			c-11.5,0-18.6-4.8-18.6-20.8c0-15.5,6.4-20.4,17.9-20.4C350.5,144.9,355.7,148.9,355.7,165.3z M329.2,161.1h19
			c-0.4-8.3-2.5-10.1-8.9-10.1C332.2,151,329.8,153.3,329.2,161.1z"/>
		<path d="M390.9,147.6v-18.2h7.3v53.7c-4.2,1.8-11.2,2.9-16.4,2.9c-12.5,0-18.2-4.5-18.2-20.6c0-15.9,6-20.6,17.3-20.6
			C385.9,144.9,388.9,146.3,390.9,147.6z M390.9,178.3v-21.6c0-3.4-3.6-5.3-9.2-5.3c-7.9,0-10.5,2.9-10.5,14.2
			c0,11.9,2.6,14.2,10.5,14.2C385,179.7,388.5,179.2,390.9,178.3z"/>
		<path d="M417.5,134.3c0,3.7-1.1,4.3-4.3,4.3c-3.3,0-4.4-0.6-4.4-4.3c0-3.4,1.1-3.8,4.4-3.8C416.4,130.5,417.5,130.9,417.5,134.3z
			 M416.7,185.1h-7.2v-39h7.2V185.1z"/>
		<path d="M457.3,184.1c-3,1.3-8,2.1-11.5,2.1c-12,0-19.1-4.8-19.1-20.8c0-15.9,7.2-20.4,19.1-20.4c3.5,0,8.6,0.8,11.5,1.8l-1.9,6.5
			c-2.6-1.2-6.1-1.8-9.3-1.8c-7.9,0-11.7,1.9-11.7,14c0,11.5,3.8,14.1,11.7,14.1c3.4,0,6.7-0.8,9.3-1.9L457.3,184.1z"/>
		<path d="M495.3,183.1c-4.6,1.9-11.5,3.1-16.7,3.1c-11.8,0-16.2-2.9-16.2-13.1c0-11.1,6.5-12.9,15.4-12.9c3.7,0,6.7,0.4,10.4,1.2
			c0-8.2-2.1-10-10.6-10c-4,0-8.4,0.6-11.5,1.8l-1.5-6.3c3.5-0.9,8.8-1.9,14.2-1.9c11.5,0,16.6,3.4,16.6,15.2V183.1z M488.2,166.7
			c-2.5-0.6-5.8-0.8-9.1-0.8c-6.6,0-8.9,0.7-8.9,6.8c0,6.5,1.8,7.5,8.8,7.5c3.2,0,6.5-0.6,9.2-1.5V166.7z"/>
		<path d="M513.6,174.6c0,3.8,0.8,5.9,3.4,8.8l-6.2,3.4c-3-3.1-4.5-6.2-4.5-11.9v-45.4h7.2V174.6z"/>
	</g>
	<g>
		<linearGradient id="SVGID_1_" gradientUnits="userSpaceOnUse" x1="162.018" y1="88.7431" x2="226.2921" y2="88.7431">
			<stop  offset="0" style="stop-color:#006BB0"/>
			<stop  offset="1" style="stop-color:#23B6EA"/>
		</linearGradient>
		<path class="st0" d="M191.7,86.5L191.7,86.5c-8.6-1.1-15.1-7.5-15.2-7.5c-1.6-1.6-3.8-2.5-6.1-2.5c-2.2,0-4.3,0.9-5.9,2.4
			c-1.6,1.6-2.5,3.7-2.6,6c0,2.3,0.8,4.4,2.4,6c0.5,0.5,12.7,12.8,29.8,12.8c13.4,0,22.8-6.4,27.8-19.2c0.3-0.7,0.6-1.5,0.9-2.3
			l0-0.1c1-2.6,2.1-5.5,3.3-8.2C221.1,85.7,210.1,90.1,191.7,86.5z"/>
		<linearGradient id="SVGID_2_" gradientUnits="userSpaceOnUse" x1="244.9963" y1="56.6057" x2="245.8966" y2="56.6057">
			<stop  offset="0" style="stop-color:#006BB0"/>
			<stop  offset="1" style="stop-color:#23B6EA"/>
		</linearGradient>
		<path class="st1" d="M245,56.6c0.3,0,0.6,0,0.9,0c0,0-0.1,0-0.1,0C245.5,56.6,245.2,56.6,245,56.6z"/>
		<linearGradient id="SVGID_3_" gradientUnits="userSpaceOnUse" x1="222.6078" y1="99.5691" x2="248.6716" y2="38.1666">
			<stop  offset="0" style="stop-color:#006BB0"/>
			<stop  offset="1" style="stop-color:#23B6EA"/>
		</linearGradient>
		<path class="st2" d="M265.4,80c0.6-0.6,1.3-1.3,1.9-2.1c4.3-5.3,6-12.2,4.6-18.9c-1.4-7-5.9-12.8-12.1-16.1
			c-4.2-2.2-9.4-3.4-14.7-3.4c-6.6,0-12.9,1.9-18.1,5.4c-10.4,7-15.6,20.3-19.8,31c-0.3,0.8-0.6,1.6-0.9,2.3
			c-2.4,6.1-5.7,8.4-12,8.4c-0.9,0-1.7-0.1-2.5-0.2l0,0c18.3,3.7,29.3-0.8,34.6-12.6c2.7-6.2,5.9-12,10.1-14.8c3-2,6.3-2.4,8.6-2.4
			c0.2,0,0.5,0,0.8,0c0,0,0.1,0,0.1,0C267.3,57.1,270.6,74.5,265.4,80z"/>
		<linearGradient id="SVGID_4_" gradientUnits="userSpaceOnUse" x1="230.1574" y1="103.4269" x2="260.8995" y2="61.114">
			<stop  offset="0" style="stop-color:#23B6EA"/>
			<stop  offset="1" style="stop-color:#006BB0"/>
		</linearGradient>
		<path class="st3" d="M247.6,87.8c0.4-0.2,0.9-0.3,1.5-0.4l0.2,0c4.2-0.6,10.3-1.6,16.1-7.4c5.2-5.6,1.9-22.9-19.5-23.4
			c0.1,0,0.1,0,0.2,0l0.1,0c0.2,0,0.4,0,0.6,0c5,0.5,7.4,3.9,7.6,6.7c0.1,2.7-1.8,6-7.6,7.2c-0.1,0-0.5,0.1-1.1,0.2
			c-1.9,0.3-3.9,0.7-6,1.6c-8.3,3.6-15,13.5-10.3,26.7c1.6,4.5,5.5,8.4,10.8,11.2C230.3,105,236.9,91.2,247.6,87.8z"/>
		<linearGradient id="SVGID_5_" gradientUnits="userSpaceOnUse" x1="242.7387" y1="87.3042" x2="277.5355" y2="109.0476">
			<stop  offset="0" style="stop-color:#006BB0"/>
			<stop  offset="1" style="stop-color:#23B6EA"/>
		</linearGradient>
		<path class="st4" d="M246.9,93.9c-0.1-0.1-0.3-0.2-0.4-0.3c-1-1.1-1.4-2.5-1-3.6c0.3-0.9,1-1.6,2.1-2
			c-10.7,3.4-17.3,17.1-7.5,22.4c3.4,1.8,7.3,3.1,11.6,3.8c1.7,0.3,3.5,0.4,5.2,0.4c9,0,17.3-3.8,23.3-10.8
			c3.5-4.1,5.9-8.4,7.8-12.8c-4.7,10.4-19.8,10.5-34.1,6.3l0,0C250.9,96.3,248.7,95.5,246.9,93.9C246.9,93.9,246.9,93.9,246.9,93.9z
			"/>
		<linearGradient id="SVGID_6_" gradientUnits="userSpaceOnUse" x1="269.3065" y1="105.7736" x2="301.335" y2="47.9928">
			<stop  offset="0" style="stop-color:#006BB0"/>
			<stop  offset="1" style="stop-color:#23B6EA"/>
		</linearGradient>
		<path class="st5" d="M314.7,60.3c-3.2-7.3-10-12-17.7-12c-7.7,0-14.4,4.8-17.3,12.4c-1.6,4-2.7,8.1-3.7,12.1
			c-2,7.4-3.9,14.5-8.6,19.9c-2.8,3.3-6.3,4.9-10.4,4.9c-0.8,0-1.7-0.1-2.5-0.2c-0.2,0-0.4-0.1-0.6-0.1l0,0
			c14.3,4.2,29.4,4.1,34.1-6.3c0,0,0,0,0,0c0.1-0.2,0.2-0.5,0.3-0.7c0.1-0.2,0.2-0.4,0.2-0.6c0.1-0.3,0.2-0.6,0.3-0.8
			c1.5-3.9,2.5-7.9,3.5-11.6c0.6-2.2,1.2-4.5,1.9-6.7l0.5-1.4C297.5,57.7,309.3,49.1,314.7,60.3z"/>
		<linearGradient id="SVGID_7_" gradientUnits="userSpaceOnUse" x1="293.2134" y1="73.3288" x2="343.2526" y2="90.5587">
			<stop  offset="0" style="stop-color:#006BB0"/>
			<stop  offset="1" style="stop-color:#23B6EA"/>
		</linearGradient>
		<path class="st6" d="M320.9,86.5L320.9,86.5c0-0.1,0-0.1,0-0.2l-0.9-4.4c-0.2-0.9-0.3-1.8-0.5-2.7c-1.3-6.7-2.6-13.6-4.4-18.3
			c-0.1-0.2-0.2-0.4-0.3-0.7c-5.4-11.1-16.5-4-20,8.8c0-0.1,0.1-0.3,0.1-0.4l0.1-0.2c0.5-1.4,1.6-1.9,2.4-1.9c1.1,0,1.9,0.7,2.2,1.9
			c0.1,0.5,0.3,0.9,0.4,1.3c1,3.6,2,8.6,2.7,12.7c0.7,3.8,1.4,7.4,2.1,9.9c2.1,7.8,9.1,13.6,17.3,14.3c0.6,0.1,1.2,0.1,1.8,0.1
			c7.3,0,13.8-4,17.5-10.9C335.5,106.4,323.1,98.9,320.9,86.5z"/>
		<linearGradient id="SVGID_8_" gradientUnits="userSpaceOnUse" x1="328.4009" y1="99.0962" x2="361.8261" y2="60.6449">
			<stop  offset="0" style="stop-color:#006BB0"/>
			<stop  offset="1" style="stop-color:#23B6EA"/>
		</linearGradient>
		<path class="st7" d="M371.2,71.9c-2.9-6.3-8.4-13.2-19.4-12.7c-12.6,0.5-17.5,11.4-22.2,21.9c-0.4,1-2.6,5.7-2.6,5.7
			c-0.8,1.6-1.8,2.5-3,2.5c-1.3,0-2.5-1.1-3-2.8l0,0c2.2,12.4,14.6,19.9,20.5,9.3c0.2-0.4,0.4-0.8,0.6-1.2c1.1-2.3,2.1-4.5,3-6.5
			c1.1-2.5,2.1-4.6,2.9-6.3l0.9-1.6v0C354.7,68.6,366.8,62.6,371.2,71.9z"/>
		<linearGradient id="SVGID_9_" gradientUnits="userSpaceOnUse" x1="370.7467" y1="64.0708" x2="388.7081" y2="108.5269">
			<stop  offset="0" style="stop-color:#006BB0"/>
			<stop  offset="1" style="stop-color:#23B6EA"/>
		</linearGradient>
		<path class="st8" d="M377.3,88.7L377.3,88.7c-1.2-1.7-2.2-4.3-3.4-8.6c-0.5-1.9-1.3-5-2.8-8.1c-4.4-9.3-16.5-3.3-22.3,8.3v0
			l0.3-0.5c1.1-1.7,2.4-2.6,3.6-2.6c1.6,0,3,1.5,3.8,4c0.3,0.9,0.6,2,1,3.2c2.1,8,6.1,23,25.4,24c0.4,0,0.8,0,1.3,0c0,0,0,0,0,0
			c11,0,19.4-7.1,26.7-15.3C400,105.3,384.7,99.7,377.3,88.7z"/>
		<linearGradient id="SVGID_10_" gradientUnits="userSpaceOnUse" x1="387.3375" y1="98.6765" x2="407.6797" y2="75.2754">
			<stop  offset="0" style="stop-color:#006BB0"/>
			<stop  offset="1" style="stop-color:#23B6EA"/>
		</linearGradient>
		<path class="st9" d="M414.8,84.8c-0.2-2.3-1.2-4.3-2.9-5.8c-1.5-1.3-3.5-2.1-5.5-2.1c-2.5,0-4.8,1.1-6.4,3
			c-5.2,6-10.7,11.6-15.8,11.6c-0.1,0-0.2,0-0.4,0c-3-0.2-4.9-0.6-6.4-2.7l0,0c7.4,11,22.7,16.6,33.6,4.4c0.6-0.7,1.3-1.4,1.9-2.2
			C414.3,89.2,415,87,414.8,84.8z"/>
	</g>
</g>
</svg>
